<svg width="100.000000" height="100.000000" viewBox="0 0 100 100" fill="none" xmlns="http://www.w3.org/2000/svg" xmlns:xlink="http://www.w3.org/1999/xlink">
	<desc>
			Created with Pixso.
	</desc>
	<g clip-path="url(#clip88_41236)">
		<path d="M36.4258 40.1367C33.6426 40.1367 31.377 42.4121 31.377 45.2148C31.377 48.0176 33.6426 50.293 36.4258 50.293C39.209 50.293 41.4746 48.0176 41.4746 45.2148C41.4746 42.4121 39.209 40.1367 36.4258 40.1367ZM90.625 15.625L9.375 15.625C7.64648 15.625 6.25 17.0215 6.25 18.75L6.25 81.25C6.25 82.9785 7.64648 84.375 9.375 84.375L90.625 84.375C92.3535 84.375 93.75 82.9785 93.75 81.25L93.75 18.75C93.75 17.0215 92.3535 15.625 90.625 15.625ZM59.375 41.0156C59.375 40.5859 59.4727 40.2344 59.5996 40.2344L71.6504 40.2344C71.7773 40.2344 71.875 40.5859 71.875 41.0156L71.875 45.7031C71.875 46.1328 71.7773 46.4844 71.6504 46.4844L59.5996 46.4844C59.4727 46.4844 59.375 46.1328 59.375 45.7031L59.375 41.0156ZM50.9766 65.7227L46.6895 65.7227C46.2793 65.7227 45.9473 65.4004 45.918 64.9902C45.5469 60.0586 41.4258 56.1523 36.4258 56.1523C31.4258 56.1523 27.3047 60.0586 26.9336 64.9902C26.9043 65.4004 26.5723 65.7227 26.1621 65.7227L21.875 65.7227C21.769 65.7227 21.6641 65.7012 21.5669 65.6602C21.4692 65.6182 21.3813 65.5566 21.3081 65.4805C21.2354 65.4033 21.1787 65.3125 21.1416 65.2129C21.105 65.1143 21.0884 65.0078 21.0938 64.9023C21.3672 59.6973 24.2188 55.166 28.3789 52.5879C26.5444 50.5713 25.5308 47.9414 25.5371 45.2148C25.5371 39.1699 30.4102 34.2773 36.416 34.2773C42.4219 34.2773 47.2949 39.1699 47.2949 45.2148C47.2949 48.0566 46.2207 50.6348 44.4531 52.5879C48.623 55.1758 51.4648 59.6973 51.7383 64.9023C51.7773 65.3516 51.4258 65.7227 50.9766 65.7227ZM78.2129 60.5469L60.0684 60.5469C59.6875 60.5469 59.375 60.1953 59.375 59.7656L59.375 55.0781C59.375 54.6484 59.6875 54.2969 60.0684 54.2969L78.2031 54.2969C78.584 54.2969 78.8965 54.6484 78.8965 55.0781L78.8965 59.7656L78.9062 59.7656C78.9062 60.1953 78.5938 60.5469 78.2129 60.5469Z" fill-rule="evenodd" fill="#1890FF"/>
	</g>
	<defs>
		<clipPath id="clip88_41236">
			<rect width="100.000000" height="100.000000" fill="white"/>
		</clipPath>
	</defs>
</svg>
